<svg width="55" height="55" viewBox="0 0 55 55" fill="none" xmlns="http://www.w3.org/2000/svg">
<g id="logo">
<path id="Vector" d="M28.6458 52.7083C27.691 52.7083 26.879 52.3837 26.2098 51.7344C25.5406 51.0851 25.2068 50.283 25.2083 49.3281C25.2083 48.8698 25.2947 48.4306 25.4673 48.0104C25.6399 47.5903 25.8974 47.2274 26.2396 46.9219L28.6458 44.6875L31.0521 46.9219C31.3958 47.2274 31.654 47.5903 31.8267 48.0104C31.9993 48.4306 32.0849 48.8698 32.0833 49.3281C32.0833 50.283 31.7495 51.0851 31.0819 51.7344C30.4142 52.3837 29.6022 52.7083 28.6458 52.7083ZM20.7396 49.2708L18.3333 46.8646L25.0938 40.1042L27.5 42.5104L20.7396 49.2708ZM35.5208 45.8333L32.0833 42.3958L35.5208 38.9583L38.9583 42.3958L35.5208 45.8333ZM14.8958 45.8333L11.4583 42.3958L14.8958 38.9583L18.3333 42.3958L14.8958 45.8333ZM17.1875 36.6667C13.7118 36.6667 10.7418 35.4345 8.2775 32.9702C5.81319 30.5059 4.58181 27.5367 4.58333 24.0625C4.58333 20.8924 5.63368 18.1233 7.73437 15.7552C9.83507 13.3872 12.4323 11.9931 15.526 11.5729C16.7483 9.39583 18.4197 7.68625 20.5402 6.44416C22.6608 5.20208 24.9807 4.5818 27.5 4.58333C30.9375 4.58333 33.9266 5.6818 36.4673 7.87875C39.008 10.0757 40.5449 12.8158 41.0781 16.099C43.7135 16.3281 45.9288 17.4167 47.724 19.3646C49.5191 21.3125 50.4167 23.6424 50.4167 26.3542C50.4167 29.2187 49.4144 31.654 47.41 33.66C45.4056 35.666 42.9703 36.6682 40.1042 36.6667H17.1875Z" fill="white"/>
</g>
</svg>
